<svg width="25" height="25" viewBox="0 0 25 25" fill="none" xmlns="http://www.w3.org/2000/svg">
<g clip-path="url(#clip0)">
<path d="M5.81891 15.0035L4.9835 18.1222L1.93011 18.1868C1.01759 16.4943 0.5 14.5578 0.5 12.5C0.5 10.5101 0.983938 8.63362 1.84175 6.98132H1.84241L4.56078 7.4797L5.75159 10.1818C5.50236 10.9084 5.36652 11.6884 5.36652 12.5C5.36661 13.3809 5.52617 14.2249 5.81891 15.0035Z" fill="#FBBB00"/>
<path d="M24.2902 10.2582C24.428 10.9841 24.4999 11.7338 24.4999 12.5C24.4999 13.3591 24.4095 14.1971 24.2375 15.0055C23.6533 17.7563 22.1269 20.1582 20.0124 21.858L20.0118 21.8574L16.5878 21.6827L16.1032 18.6576C17.5063 17.8347 18.6028 16.547 19.1804 15.0055H12.7637V10.2582H19.274H24.2902Z" fill="#518EF8"/>
<path d="M20.0119 21.8574L20.0126 21.858C17.9561 23.511 15.3438 24.5 12.5001 24.5C7.93018 24.5 3.957 21.9457 1.93018 18.1868L5.81897 15.0035C6.83236 17.7081 9.44138 19.6334 12.5001 19.6334C13.8148 19.6334 15.0465 19.278 16.1033 18.6576L20.0119 21.8574Z" fill="#28B446"/>
<path d="M20.1596 3.26263L16.2721 6.44525C15.1783 5.76153 13.8853 5.36656 12.5 5.36656C9.37213 5.36656 6.71431 7.38017 5.75169 10.1818L1.84245 6.98131H1.8418C3.83895 3.13077 7.86223 0.5 12.5 0.5C15.4117 0.5 18.0814 1.53716 20.1596 3.26263Z" fill="#F14336"/>
</g>
<defs>
<clipPath id="clip0">
<rect width="24" height="24" fill="white" transform="translate(0.5 0.5)"/>
</clipPath>
</defs>
</svg>
